<svg xmlns="http://www.w3.org/2000/svg" viewBox="0 0 100 100">
  <defs>
    <linearGradient id="bg" x1="0%" y1="0%" x2="100%" y2="100%">
      <stop offset="0%" stop-color="#4B0082"/>
      <stop offset="100%" stop-color="#8B00FF"/>
    </linearGradient>
  </defs>
  <!-- Фон -->
  <circle cx="50" cy="50" r="48" fill="url(#bg)"/>
  <!-- Контур мозга -->
  <path d="M50,20 C35,20 25,30 22,45 C20,55 22,68 30,75 C35,79 42,70 45,58 C47,50 47,42 50,38 C53,42 53,50 55,58 C58,70 65,79 70,75 C78,68 80,55 78,45 C75,30 65,20 50,20 Z" 
        fill="none" stroke="#ffffff" stroke-width="4" stroke-linejoin="round"/>
  <!-- Молния (оптимизация) -->
  <polygon points="50,28 43,45 49,45 46,60 54,42 48,42" fill="#FFD700"/>
</svg>